<svg width="30" height="34" viewBox="0 0 30 34" fill="none" xmlns="http://www.w3.org/2000/svg">
<ellipse cx="0.9375" cy="2.8333" rx="0.9375" ry="0.944444" fill="white"/>
<ellipse cx="0.9375" cy="4.72209" rx="0.9375" ry="0.944444" fill="white"/>
<ellipse cx="2.8125" cy="2.8333" rx="0.9375" ry="0.944444" fill="white"/>
<ellipse cx="2.8125" cy="4.72209" rx="0.9375" ry="0.944444" fill="white"/>
<ellipse cx="4.6875" cy="2.8333" rx="0.9375" ry="0.944444" fill="white"/>
<ellipse cx="4.6875" cy="4.72209" rx="0.9375" ry="0.944444" fill="white"/>
<ellipse cx="6.5625" cy="2.8333" rx="0.9375" ry="0.944444" fill="white"/>
<ellipse cx="6.5625" cy="4.72209" rx="0.9375" ry="0.944444" fill="white"/>
<ellipse cx="8.4375" cy="2.8333" rx="0.9375" ry="0.944444" fill="white"/>
<ellipse cx="8.4375" cy="4.72209" rx="0.9375" ry="0.944444" fill="white"/>
<ellipse cx="10.3125" cy="2.8333" rx="0.9375" ry="0.944444" fill="white"/>
<ellipse cx="10.3125" cy="4.72209" rx="0.9375" ry="0.944444" fill="white"/>
<ellipse cx="12.1875" cy="2.8333" rx="0.9375" ry="0.944444" fill="white"/>
<ellipse cx="12.1875" cy="4.72209" rx="0.9375" ry="0.944444" fill="white"/>
<ellipse cx="14.0625" cy="2.8333" rx="0.9375" ry="0.944444" fill="white"/>
<ellipse cx="14.0625" cy="4.72209" rx="0.9375" ry="0.944444" fill="white"/>
<ellipse cx="15.9375" cy="2.8333" rx="0.9375" ry="0.944444" fill="white"/>
<ellipse cx="15.9375" cy="4.72209" rx="0.9375" ry="0.944444" fill="white"/>
<ellipse cx="17.8125" cy="2.8333" rx="0.9375" ry="0.944444" fill="white"/>
<ellipse cx="17.8125" cy="4.72209" rx="0.9375" ry="0.944444" fill="white"/>
<ellipse cx="19.6875" cy="2.8333" rx="0.9375" ry="0.944444" fill="white"/>
<ellipse cx="10.3125" cy="0.944444" rx="0.9375" ry="0.944444" fill="white"/>
<ellipse cx="12.1875" cy="0.944444" rx="0.9375" ry="0.944444" fill="white"/>
<ellipse cx="14.0625" cy="0.944444" rx="0.9375" ry="0.944444" fill="white"/>
<ellipse cx="15.9375" cy="0.944444" rx="0.9375" ry="0.944444" fill="white"/>
<ellipse cx="17.8125" cy="0.944444" rx="0.9375" ry="0.944444" fill="white"/>
<ellipse cx="19.6875" cy="0.944444" rx="0.9375" ry="0.944444" fill="white"/>
<ellipse cx="19.6875" cy="4.72209" rx="0.9375" ry="0.944444" fill="white"/>
<ellipse cx="21.5625" cy="2.8333" rx="0.9375" ry="0.944444" fill="white"/>
<ellipse cx="21.5625" cy="4.72209" rx="0.9375" ry="0.944444" fill="white"/>
<ellipse cx="23.4375" cy="2.8333" rx="0.9375" ry="0.944444" fill="white"/>
<ellipse cx="23.4375" cy="4.72209" rx="0.9375" ry="0.944444" fill="white"/>
<ellipse cx="25.3125" cy="2.8333" rx="0.9375" ry="0.944444" fill="white"/>
<ellipse cx="25.3125" cy="4.72209" rx="0.9375" ry="0.944444" fill="white"/>
<ellipse cx="27.1875" cy="2.8333" rx="0.9375" ry="0.944444" fill="white"/>
<ellipse cx="27.1875" cy="4.72209" rx="0.9375" ry="0.944444" fill="white"/>
<ellipse cx="2.8125" cy="6.61119" rx="0.9375" ry="0.944444" fill="white"/>
<ellipse cx="2.8125" cy="8.50005" rx="0.9375" ry="0.944444" fill="white"/>
<ellipse cx="4.6875" cy="6.61119" rx="0.9375" ry="0.944444" fill="white"/>
<ellipse cx="4.6875" cy="8.50005" rx="0.9375" ry="0.944444" fill="white"/>
<ellipse cx="25.3125" cy="6.61119" rx="0.9375" ry="0.944444" fill="white"/>
<ellipse cx="25.3125" cy="8.50005" rx="0.9375" ry="0.944444" fill="white"/>
<ellipse cx="27.1875" cy="6.61119" rx="0.9375" ry="0.944444" fill="white"/>
<ellipse cx="27.1875" cy="8.50005" rx="0.9375" ry="0.944444" fill="white"/>
<ellipse cx="2.8125" cy="10.3888" rx="0.9375" ry="0.944444" fill="white"/>
<ellipse cx="2.8125" cy="12.2777" rx="0.9375" ry="0.944444" fill="white"/>
<ellipse cx="4.6875" cy="10.3888" rx="0.9375" ry="0.944444" fill="white"/>
<ellipse cx="4.6875" cy="12.2777" rx="0.9375" ry="0.944444" fill="white"/>
<ellipse cx="25.3125" cy="10.3888" rx="0.9375" ry="0.944444" fill="white"/>
<ellipse cx="25.3125" cy="12.2777" rx="0.9375" ry="0.944444" fill="white"/>
<ellipse cx="27.1875" cy="10.3888" rx="0.9375" ry="0.944444" fill="white"/>
<ellipse cx="27.1875" cy="12.2777" rx="0.9375" ry="0.944444" fill="white"/>
<ellipse cx="2.8125" cy="14.1668" rx="0.9375" ry="0.944444" fill="white"/>
<ellipse cx="2.8125" cy="16.0556" rx="0.9375" ry="0.944444" fill="white"/>
<ellipse cx="4.6875" cy="14.1668" rx="0.9375" ry="0.944444" fill="white"/>
<ellipse cx="4.6875" cy="16.0556" rx="0.9375" ry="0.944444" fill="white"/>
<ellipse cx="25.3125" cy="14.1668" rx="0.9375" ry="0.944444" fill="white"/>
<ellipse cx="25.3125" cy="16.0556" rx="0.9375" ry="0.944444" fill="white"/>
<ellipse cx="27.1875" cy="14.1668" rx="0.9375" ry="0.944444" fill="white"/>
<ellipse cx="27.1875" cy="16.0556" rx="0.9375" ry="0.944444" fill="white"/>
<ellipse cx="2.8125" cy="17.9444" rx="0.9375" ry="0.944444" fill="white"/>
<ellipse cx="2.8125" cy="19.8333" rx="0.9375" ry="0.944444" fill="white"/>
<ellipse cx="4.6875" cy="17.9444" rx="0.9375" ry="0.944444" fill="white"/>
<ellipse cx="4.6875" cy="19.8333" rx="0.9375" ry="0.944444" fill="white"/>
<ellipse cx="12.1875" cy="23.6112" rx="0.9375" ry="0.944444" fill="white"/>
<ellipse cx="25.3125" cy="17.9444" rx="0.9375" ry="0.944444" fill="white"/>
<ellipse cx="25.3125" cy="19.8333" rx="0.9375" ry="0.944444" fill="white"/>
<ellipse cx="27.1875" cy="17.9444" rx="0.9375" ry="0.944444" fill="white"/>
<ellipse cx="27.1875" cy="19.8333" rx="0.9375" ry="0.944444" fill="white"/>
<ellipse cx="2.8125" cy="21.7221" rx="0.9375" ry="0.944444" fill="white"/>
<ellipse cx="2.8125" cy="23.6112" rx="0.9375" ry="0.944444" fill="white"/>
<ellipse cx="4.6875" cy="21.7221" rx="0.9375" ry="0.944444" fill="white"/>
<ellipse cx="4.6875" cy="23.6112" rx="0.9375" ry="0.944444" fill="white"/>
<ellipse cx="25.3125" cy="21.7221" rx="0.9375" ry="0.944444" fill="white"/>
<ellipse cx="25.3125" cy="23.6112" rx="0.9375" ry="0.944444" fill="white"/>
<ellipse cx="27.1875" cy="21.7221" rx="0.9375" ry="0.944444" fill="white"/>
<ellipse cx="27.1875" cy="23.6112" rx="0.9375" ry="0.944444" fill="white"/>
<ellipse cx="2.8125" cy="25.5" rx="0.9375" ry="0.944444" fill="white"/>
<ellipse cx="2.8125" cy="27.3888" rx="0.9375" ry="0.944444" fill="white"/>
<ellipse cx="4.6875" cy="25.5" rx="0.9375" ry="0.944444" fill="white"/>
<ellipse cx="10.3125" cy="25.5" rx="0.9375" ry="0.944444" fill="white"/>
<ellipse cx="12.1875" cy="25.5" rx="0.9375" ry="0.944444" fill="white"/>
<ellipse cx="10.3125" cy="23.6112" rx="0.9375" ry="0.944444" fill="white"/>
<ellipse cx="12.1875" cy="19.8333" rx="0.9375" ry="0.944444" fill="white"/>
<ellipse cx="10.3125" cy="21.7221" rx="0.9375" ry="0.944444" fill="white"/>
<ellipse cx="12.1875" cy="21.7221" rx="0.9375" ry="0.944444" fill="white"/>
<ellipse cx="10.3125" cy="19.8333" rx="0.9375" ry="0.944444" fill="white"/>
<ellipse cx="12.1875" cy="16.0556" rx="0.9375" ry="0.944444" fill="white"/>
<ellipse cx="10.3125" cy="17.9444" rx="0.9375" ry="0.944444" fill="white"/>
<ellipse cx="12.1875" cy="17.9444" rx="0.9375" ry="0.944444" fill="white"/>
<ellipse cx="10.3125" cy="16.0556" rx="0.9375" ry="0.944444" fill="white"/>
<ellipse cx="12.1875" cy="12.2777" rx="0.9375" ry="0.944444" fill="white"/>
<ellipse cx="10.3125" cy="14.1668" rx="0.9375" ry="0.944444" fill="white"/>
<ellipse cx="12.1875" cy="14.1668" rx="0.9375" ry="0.944444" fill="white"/>
<ellipse cx="10.3125" cy="12.2777" rx="0.9375" ry="0.944444" fill="white"/>
<ellipse cx="12.1875" cy="10.3888" rx="0.9375" ry="0.944444" fill="white"/>
<ellipse cx="10.3125" cy="10.3888" rx="0.9375" ry="0.944444" fill="white"/>
<ellipse cx="19.6875" cy="23.6112" rx="0.9375" ry="0.944444" fill="white"/>
<ellipse cx="17.8125" cy="25.5" rx="0.9375" ry="0.944444" fill="white"/>
<ellipse cx="19.6875" cy="25.5" rx="0.9375" ry="0.944444" fill="white"/>
<ellipse cx="17.8125" cy="23.6112" rx="0.9375" ry="0.944444" fill="white"/>
<ellipse cx="19.6875" cy="19.8333" rx="0.9375" ry="0.944444" fill="white"/>
<ellipse cx="17.8125" cy="21.7221" rx="0.9375" ry="0.944444" fill="white"/>
<ellipse cx="19.6875" cy="21.7221" rx="0.9375" ry="0.944444" fill="white"/>
<ellipse cx="17.8125" cy="19.8333" rx="0.9375" ry="0.944444" fill="white"/>
<ellipse cx="19.6875" cy="16.0556" rx="0.9375" ry="0.944444" fill="white"/>
<ellipse cx="17.8125" cy="17.9444" rx="0.9375" ry="0.944444" fill="white"/>
<ellipse cx="19.6875" cy="17.9444" rx="0.9375" ry="0.944444" fill="white"/>
<ellipse cx="17.8125" cy="16.0556" rx="0.9375" ry="0.944444" fill="white"/>
<ellipse cx="19.6875" cy="12.2777" rx="0.9375" ry="0.944444" fill="white"/>
<ellipse cx="17.8125" cy="14.1668" rx="0.9375" ry="0.944444" fill="white"/>
<ellipse cx="19.6875" cy="14.1668" rx="0.9375" ry="0.944444" fill="white"/>
<ellipse cx="17.8125" cy="12.2777" rx="0.9375" ry="0.944444" fill="white"/>
<ellipse cx="19.6875" cy="10.3888" rx="0.9375" ry="0.944444" fill="white"/>
<ellipse cx="17.8125" cy="10.3888" rx="0.9375" ry="0.944444" fill="white"/>
<ellipse cx="4.6875" cy="27.3888" rx="0.9375" ry="0.944444" fill="white"/>
<ellipse cx="25.3125" cy="25.5" rx="0.9375" ry="0.944444" fill="white"/>
<ellipse cx="25.3125" cy="27.3888" rx="0.9375" ry="0.944444" fill="white"/>
<ellipse cx="27.1875" cy="25.5" rx="0.9375" ry="0.944444" fill="white"/>
<ellipse cx="27.1875" cy="27.3888" rx="0.9375" ry="0.944444" fill="white"/>
<ellipse cx="2.8125" cy="29.2777" rx="0.9375" ry="0.944444" fill="white"/>
<ellipse cx="2.8125" cy="31.1668" rx="0.9375" ry="0.944444" fill="white"/>
<ellipse cx="4.6875" cy="29.2777" rx="0.9375" ry="0.944444" fill="white"/>
<ellipse cx="4.6875" cy="31.1668" rx="0.9375" ry="0.944444" fill="white"/>
<ellipse cx="6.5625" cy="31.1668" rx="0.9375" ry="0.944444" fill="white"/>
<ellipse cx="25.3125" cy="29.2777" rx="0.9375" ry="0.944444" fill="white"/>
<ellipse cx="25.3125" cy="31.1668" rx="0.9375" ry="0.944444" fill="white"/>
<ellipse cx="27.1875" cy="29.2777" rx="0.9375" ry="0.944444" fill="white"/>
<ellipse cx="27.1875" cy="31.1668" rx="0.9375" ry="0.944444" fill="white"/>
<ellipse cx="4.6875" cy="33.0556" rx="0.9375" ry="0.944444" fill="white"/>
<ellipse cx="6.5625" cy="33.0556" rx="0.9375" ry="0.944444" fill="white"/>
<ellipse cx="8.4375" cy="31.1668" rx="0.9375" ry="0.944444" fill="white"/>
<ellipse cx="10.3125" cy="31.1668" rx="0.9375" ry="0.944444" fill="white"/>
<ellipse cx="8.4375" cy="33.0556" rx="0.9375" ry="0.944444" fill="white"/>
<ellipse cx="10.3125" cy="33.0556" rx="0.9375" ry="0.944444" fill="white"/>
<ellipse cx="12.1875" cy="31.1668" rx="0.9375" ry="0.944444" fill="white"/>
<ellipse cx="14.0625" cy="31.1668" rx="0.9375" ry="0.944444" fill="white"/>
<ellipse cx="12.1875" cy="33.0556" rx="0.9375" ry="0.944444" fill="white"/>
<ellipse cx="14.0625" cy="33.0556" rx="0.9375" ry="0.944444" fill="white"/>
<ellipse cx="15.9375" cy="31.1668" rx="0.9375" ry="0.944444" fill="white"/>
<ellipse cx="17.8125" cy="31.1668" rx="0.9375" ry="0.944444" fill="white"/>
<ellipse cx="15.9375" cy="33.0556" rx="0.9375" ry="0.944444" fill="white"/>
<ellipse cx="17.8125" cy="33.0556" rx="0.9375" ry="0.944444" fill="white"/>
<ellipse cx="25.3125" cy="33.0556" rx="0.9375" ry="0.944444" fill="white"/>
<ellipse cx="23.4375" cy="31.1668" rx="0.9375" ry="0.944444" fill="white"/>
<ellipse cx="23.4375" cy="33.0556" rx="0.9375" ry="0.944444" fill="white"/>
<ellipse cx="21.5625" cy="31.1668" rx="0.9375" ry="0.944444" fill="white"/>
<ellipse cx="21.5625" cy="33.0556" rx="0.9375" ry="0.944444" fill="white"/>
<ellipse cx="19.6875" cy="31.1668" rx="0.9375" ry="0.944444" fill="white"/>
<ellipse cx="19.6875" cy="33.0556" rx="0.9375" ry="0.944444" fill="white"/>
<ellipse cx="29.0625" cy="2.8333" rx="0.9375" ry="0.944444" fill="white"/>
<ellipse cx="29.0625" cy="4.72209" rx="0.9375" ry="0.944444" fill="white"/>
</svg>
