<svg width="30" height="30" viewBox="0 0 30 30" fill="none" xmlns="http://www.w3.org/2000/svg">
<circle cx="24.1676" cy="0.833333" r="0.833333" fill="white"/>
<circle cx="25.8338" cy="2.49984" r="0.833333" fill="white"/>
<circle cx="27.5003" cy="4.16622" r="0.833333" fill="white"/>
<circle cx="29.1668" cy="5.83358" r="0.833333" fill="white"/>
<circle cx="22.4991" cy="2.49984" r="0.833333" fill="white"/>
<circle cx="24.1676" cy="4.16622" r="0.833333" fill="white"/>
<circle cx="25.8338" cy="5.83358" r="0.833333" fill="white"/>
<circle cx="27.5003" cy="7.50008" r="0.833333" fill="white"/>
<circle cx="25.8338" cy="5.83358" r="0.833333" fill="white"/>
<circle cx="20.8328" cy="4.16622" r="0.833333" fill="white"/>
<circle cx="22.4991" cy="5.83358" r="0.833333" fill="white"/>
<circle cx="24.1676" cy="7.50008" r="0.833333" fill="white"/>
<circle cx="25.8338" cy="9.16658" r="0.833333" fill="white"/>
<circle cx="19.1663" cy="5.83358" r="0.833333" fill="white"/>
<circle cx="20.8328" cy="7.50008" r="0.833333" fill="white"/>
<circle cx="24.1676" cy="10.8331" r="0.833333" fill="white"/>
<circle cx="17.4998" cy="7.50008" r="0.833333" fill="white"/>
<circle cx="22.4991" cy="12.5004" r="0.833333" fill="white"/>
<circle cx="15.8333" cy="9.16658" r="0.833333" fill="white"/>
<circle cx="20.8328" cy="14.1668" r="0.833333" fill="white"/>
<circle cx="14.1668" cy="10.8331" r="0.833333" fill="white"/>
<circle cx="19.1663" cy="15.8333" r="0.833333" fill="white"/>
<circle cx="12.5003" cy="12.5004" r="0.833333" fill="white"/>
<circle cx="17.4998" cy="17.4998" r="0.833333" fill="white"/>
<circle cx="10.8338" cy="14.1668" r="0.833333" fill="white"/>
<circle cx="15.8333" cy="19.1662" r="0.833333" fill="white"/>
<circle cx="9.16756" cy="15.8333" r="0.833333" fill="white"/>
<circle cx="14.1668" cy="20.8336" r="0.833333" fill="white"/>
<circle cx="7.4991" cy="17.4998" r="0.833333" fill="white"/>
<circle cx="12.5003" cy="22.5001" r="0.833333" fill="white"/>
<circle cx="5.83285" cy="19.1662" r="0.833333" fill="white"/>
<circle cx="10.8338" cy="24.1666" r="0.833333" fill="white"/>
<circle cx="4.16634" cy="20.8336" r="0.833333" fill="white"/>
<circle cx="9.16756" cy="25.8331" r="0.833333" fill="white"/>
<circle cx="2.49984" cy="22.5001" r="0.833333" fill="white"/>
<circle cx="7.4991" cy="27.5004" r="0.833333" fill="white"/>
<circle cx="0.833333" cy="24.1666" r="0.833333" fill="white"/>
<circle cx="2.49984" cy="25.8331" r="0.833333" fill="white"/>
<circle cx="5.83285" cy="29.1668" r="0.833333" fill="white"/>
<circle cx="4.16634" cy="27.5004" r="0.833333" fill="white"/>
<circle cx="0.833333" cy="29.1668" r="0.833333" fill="white"/>
<circle cx="22.4991" cy="9.16658" r="0.833333" fill="white"/>
</svg>
