<svg width="25" height="25" viewBox="0 0 25 25" fill="none" xmlns="http://www.w3.org/2000/svg">
<ellipse cx="8.321" cy="0.58927" rx="0.561109" ry="0.58927" fill="white"/>
<ellipse cx="8.321" cy="1.8433" rx="0.561109" ry="0.58927" fill="white"/>
<ellipse cx="7.12654" cy="0.58927" rx="0.561109" ry="0.58927" fill="white"/>
<ellipse cx="7.12654" cy="1.8433" rx="0.561109" ry="0.58927" fill="white"/>
<ellipse cx="5.93318" cy="0.58927" rx="0.561109" ry="0.58927" fill="white"/>
<ellipse cx="5.93318" cy="1.8433" rx="0.561109" ry="0.58927" fill="white"/>
<ellipse cx="4.73994" cy="0.58927" rx="0.561109" ry="0.58927" fill="white"/>
<ellipse cx="4.73994" cy="1.8433" rx="0.561109" ry="0.58927" fill="white"/>
<ellipse cx="3.54585" cy="0.58927" rx="0.561109" ry="0.58927" fill="white"/>
<ellipse cx="3.54585" cy="1.8433" rx="0.561109" ry="0.58927" fill="white"/>
<ellipse cx="2.35151" cy="0.58927" rx="0.561109" ry="0.58927" fill="white"/>
<ellipse cx="2.35151" cy="1.8433" rx="0.561109" ry="0.58927" fill="white"/>
<ellipse cx="1.1573" cy="1.21659" rx="0.561109" ry="0.58927" fill="white"/>
<ellipse cx="1.75544" cy="3.09647" rx="0.561109" ry="0.58927" fill="white"/>
<ellipse cx="1.75544" cy="4.35093" rx="0.561109" ry="0.58927" fill="white"/>
<ellipse cx="0.561109" cy="3.72367" rx="0.561109" ry="0.58927" fill="white"/>
<ellipse cx="0.561109" cy="4.97751" rx="0.561109" ry="0.58927" fill="white"/>
<ellipse cx="1.75544" cy="5.60435" rx="0.561109" ry="0.58927" fill="white"/>
<ellipse cx="1.75544" cy="6.85807" rx="0.561109" ry="0.58927" fill="white"/>
<ellipse cx="0.561109" cy="6.23081" rx="0.561109" ry="0.58927" fill="white"/>
<ellipse cx="0.561109" cy="7.4852" rx="0.561109" ry="0.58927" fill="white"/>
<ellipse cx="1.75544" cy="8.11185" rx="0.561109" ry="0.58927" fill="white"/>
<ellipse cx="1.75544" cy="9.3657" rx="0.561109" ry="0.58927" fill="white"/>
<ellipse cx="0.561109" cy="8.73862" rx="0.561109" ry="0.58927" fill="white"/>
<ellipse cx="0.561109" cy="9.9929" rx="0.561109" ry="0.58927" fill="white"/>
<ellipse cx="1.75544" cy="10.62" rx="0.561109" ry="0.58927" fill="white"/>
<ellipse cx="1.75544" cy="11.873" rx="0.561109" ry="0.58927" fill="white"/>
<ellipse cx="0.561109" cy="11.2461" rx="0.561109" ry="0.58927" fill="white"/>
<ellipse cx="0.561109" cy="12.5001" rx="0.561109" ry="0.58927" fill="white"/>
<ellipse cx="1.75544" cy="13.1274" rx="0.561109" ry="0.58927" fill="white"/>
<ellipse cx="1.75544" cy="14.3805" rx="0.561109" ry="0.58927" fill="white"/>
<ellipse cx="7.72468" cy="12.5001" rx="0.561109" ry="0.58927" fill="white"/>
<ellipse cx="8.9178" cy="11.873" rx="0.561109" ry="0.58927" fill="white"/>
<ellipse cx="8.9178" cy="11.873" rx="0.561109" ry="0.58927" fill="white"/>
<ellipse cx="8.9178" cy="13.1274" rx="0.561109" ry="0.58927" fill="white"/>
<ellipse cx="10.1112" cy="11.873" rx="0.561109" ry="0.58927" fill="white"/>
<ellipse cx="10.1112" cy="13.1274" rx="0.561109" ry="0.58927" fill="white"/>
<ellipse cx="11.3056" cy="11.873" rx="0.561109" ry="0.58927" fill="white"/>
<ellipse cx="11.3057" cy="13.1274" rx="0.561109" ry="0.58927" fill="white"/>
<ellipse cx="12.5" cy="11.873" rx="0.561109" ry="0.58927" fill="white"/>
<ellipse cx="12.5001" cy="13.1274" rx="0.561109" ry="0.58927" fill="white"/>
<ellipse cx="13.6938" cy="11.873" rx="0.561109" ry="0.58927" fill="white"/>
<ellipse cx="13.6938" cy="13.1274" rx="0.561109" ry="0.58927" fill="white"/>
<ellipse cx="14.8869" cy="11.873" rx="0.561109" ry="0.58927" fill="white"/>
<ellipse cx="14.8869" cy="13.1274" rx="0.561109" ry="0.58927" fill="white"/>
<ellipse cx="16.0803" cy="11.873" rx="0.561109" ry="0.58927" fill="white"/>
<ellipse cx="16.0803" cy="13.1274" rx="0.561109" ry="0.58927" fill="white"/>
<ellipse cx="17.2752" cy="11.873" rx="0.561109" ry="0.58927" fill="white"/>
<ellipse cx="17.2755" cy="13.1274" rx="0.561109" ry="0.58927" fill="white"/>
<ellipse cx="18.4692" cy="11.873" rx="0.561109" ry="0.58927" fill="white"/>
<ellipse cx="18.4693" cy="13.1274" rx="0.561109" ry="0.58927" fill="white"/>
<ellipse cx="19.663" cy="11.873" rx="0.561109" ry="0.58927" fill="white"/>
<ellipse cx="19.663" cy="13.1274" rx="0.561109" ry="0.58927" fill="white"/>
<ellipse cx="20.8562" cy="11.873" rx="0.561109" ry="0.58927" fill="white"/>
<ellipse cx="20.8562" cy="13.1272" rx="0.561109" ry="0.58927" fill="white"/>
<ellipse cx="0.561446" cy="0.588948" rx="0.561446" ry="0.588948" transform="matrix(0.993534 0.113538 -0.103064 0.994675 21.5157 13.7911)" fill="white"/>
<ellipse cx="0.561446" cy="0.588948" rx="0.561446" ry="0.588948" transform="matrix(0.993534 0.113538 -0.103064 0.994675 20.7926 14.9701)" fill="white"/>
<ellipse cx="22.0495" cy="11.873" rx="0.561109" ry="0.58927" fill="white"/>
<ellipse cx="22.0495" cy="13.1273" rx="0.561109" ry="0.58927" fill="white"/>
<ellipse cx="0.561446" cy="0.588948" rx="0.561446" ry="0.588948" transform="matrix(0.993534 0.113538 -0.103064 0.994675 22.703 13.9271)" fill="white"/>
<ellipse cx="0.561446" cy="0.588948" rx="0.561446" ry="0.588948" transform="matrix(0.993534 0.113538 -0.103064 0.994675 21.9792 15.105)" fill="white"/>
<ellipse cx="0.561446" cy="0.588948" rx="0.561446" ry="0.588948" transform="matrix(0.993534 0.113538 -0.103064 0.994675 20.0715 16.1485)" fill="white"/>
<ellipse cx="0.561446" cy="0.588948" rx="0.561446" ry="0.588948" transform="matrix(0.993534 0.113538 -0.103064 0.994675 19.3488 17.3274)" fill="white"/>
<ellipse cx="0.561446" cy="0.588948" rx="0.561446" ry="0.588948" transform="matrix(0.993534 0.113538 -0.103064 0.994675 21.2582 16.2845)" fill="white"/>
<ellipse cx="0.561446" cy="0.588948" rx="0.561446" ry="0.588948" transform="matrix(0.993534 0.113538 -0.103064 0.994675 20.5361 17.4625)" fill="white"/>
<ellipse cx="0.561446" cy="0.588948" rx="0.561446" ry="0.588948" transform="matrix(0.993534 0.113538 -0.103064 0.994675 18.6259 18.5057)" fill="white"/>
<ellipse cx="0.561446" cy="0.588948" rx="0.561446" ry="0.588948" transform="matrix(0.993534 0.113538 -0.103064 0.994675 19.8126 18.6416)" fill="white"/>
<ellipse cx="0.561446" cy="0.588948" rx="0.561446" ry="0.588948" transform="matrix(0.993534 -0.113538 -0.103064 -0.994675 21.5157 11.1637)" fill="white"/>
<ellipse cx="0.561446" cy="0.588948" rx="0.561446" ry="0.588948" transform="matrix(0.993534 -0.113538 -0.103064 -0.994675 20.7926 9.98541)" fill="white"/>
<ellipse cx="0.561446" cy="0.588948" rx="0.561446" ry="0.588948" transform="matrix(0.993534 -0.113538 -0.103064 -0.994675 22.703 11.0288)" fill="white"/>
<ellipse cx="0.561446" cy="0.588948" rx="0.561446" ry="0.588948" transform="matrix(0.993534 -0.113538 -0.103064 -0.994675 21.9792 9.84937)" fill="white"/>
<ellipse cx="0.561446" cy="0.588948" rx="0.561446" ry="0.588948" transform="matrix(0.993534 -0.113538 -0.103064 -0.994675 20.0715 8.80719)" fill="white"/>
<ellipse cx="0.561446" cy="0.588948" rx="0.561446" ry="0.588948" transform="matrix(0.993534 -0.113538 -0.103064 -0.994675 19.3488 7.62817)" fill="white"/>
<ellipse cx="0.561446" cy="0.588948" rx="0.561446" ry="0.588948" transform="matrix(0.993534 -0.113538 -0.103064 -0.994675 21.2582 8.67163)" fill="white"/>
<ellipse cx="0.561446" cy="0.588948" rx="0.561446" ry="0.588948" transform="matrix(0.993534 -0.113538 -0.103064 -0.994675 20.5361 7.49243)" fill="white"/>
<ellipse cx="0.561446" cy="0.588948" rx="0.561446" ry="0.588948" transform="matrix(0.993534 -0.113538 -0.103064 -0.994675 18.6259 6.44995)" fill="white"/>
<ellipse cx="0.561446" cy="0.588948" rx="0.561446" ry="0.588948" transform="matrix(0.993534 -0.113538 -0.103064 -0.994675 19.8126 6.31421)" fill="white"/>
<ellipse cx="23.2443" cy="11.873" rx="0.561109" ry="0.58927" fill="white"/>
<ellipse cx="23.2445" cy="13.1274" rx="0.561109" ry="0.58927" fill="white"/>
<ellipse cx="24.4387" cy="12.5001" rx="0.561109" ry="0.58927" fill="white"/>
<ellipse cx="0.561109" cy="13.7543" rx="0.561109" ry="0.58927" fill="white"/>
<ellipse cx="0.561109" cy="15.0073" rx="0.561109" ry="0.58927" fill="white"/>
<ellipse cx="1.75544" cy="15.6346" rx="0.561109" ry="0.58927" fill="white"/>
<ellipse cx="1.75544" cy="16.8885" rx="0.561109" ry="0.58927" fill="white"/>
<ellipse cx="0.561109" cy="16.2618" rx="0.561109" ry="0.58927" fill="white"/>
<ellipse cx="0.561109" cy="17.5148" rx="0.561109" ry="0.58927" fill="white"/>
<ellipse cx="1.75544" cy="18.1416" rx="0.561109" ry="0.58927" fill="white"/>
<ellipse cx="1.75544" cy="19.3961" rx="0.561109" ry="0.58927" fill="white"/>
<ellipse cx="0.561109" cy="18.7689" rx="0.561109" ry="0.58927" fill="white"/>
<ellipse cx="0.561109" cy="20.0229" rx="0.561109" ry="0.58927" fill="white"/>
<ellipse cx="1.75544" cy="20.6495" rx="0.561109" ry="0.58927" fill="white"/>
<ellipse cx="1.75544" cy="21.9037" rx="0.561109" ry="0.58927" fill="white"/>
<ellipse cx="2.35151" cy="23.157" rx="0.561109" ry="0.58927" fill="white"/>
<ellipse cx="3.54585" cy="23.157" rx="0.561109" ry="0.58927" fill="white"/>
<ellipse cx="0.561109" cy="21.2761" rx="0.561109" ry="0.58927" fill="white"/>
<ellipse cx="0.561109" cy="22.5301" rx="0.561109" ry="0.58927" fill="white"/>
<ellipse cx="0.561109" cy="22.5301" rx="0.561109" ry="0.58927" fill="white"/>
<ellipse cx="1.1573" cy="23.7831" rx="0.561109" ry="0.58927" fill="white"/>
<ellipse cx="2.35151" cy="24.4101" rx="0.561109" ry="0.58927" fill="white"/>
<ellipse cx="3.54585" cy="24.4101" rx="0.561109" ry="0.58927" fill="white"/>
<ellipse cx="4.73994" cy="23.157" rx="0.561109" ry="0.58927" fill="white"/>
<ellipse cx="5.93318" cy="23.157" rx="0.561109" ry="0.58927" fill="white"/>
<ellipse cx="4.73994" cy="24.4101" rx="0.561109" ry="0.58927" fill="white"/>
<ellipse cx="5.93318" cy="24.4101" rx="0.561109" ry="0.58927" fill="white"/>
<ellipse cx="7.12654" cy="23.157" rx="0.561109" ry="0.58927" fill="white"/>
<ellipse cx="8.32087" cy="23.157" rx="0.561109" ry="0.58927" fill="white"/>
<ellipse cx="7.12642" cy="24.4101" rx="0.561109" ry="0.58927" fill="white"/>
<ellipse cx="8.32087" cy="24.4101" rx="0.561109" ry="0.58927" fill="white"/>
<ellipse cx="9.51484" cy="23.7831" rx="0.561109" ry="0.58927" fill="white"/>
<ellipse cx="0.561109" cy="2.46958" rx="0.561109" ry="0.58927" fill="white"/>
<ellipse cx="9.51509" cy="1.21659" rx="0.561109" ry="0.58927" fill="white"/>
</svg>
